<mxfile host="app.diagrams.net" modified="2023-09-21T14:14:02.783Z" agent="Mozilla/5.0 (Windows NT 10.0; Win64; x64; rv:109.0) Gecko/20100101 Firefox/117.0" etag="1vqOz9YCrftxneKOwGzz" version="21.8.0" type="google">
  <diagram name="Page-1" id="QDh_dutRnW_xUoMcb9bI">
    <mxGraphModel grid="1" page="1" gridSize="10" guides="1" tooltips="1" connect="1" arrows="1" fold="1" pageScale="1" pageWidth="827" pageHeight="1169" math="0" shadow="0">
      <root>
        <mxCell id="0" />
        <mxCell id="1" parent="0" />
        <mxCell id="pfSd8tROmg1UcO-xE_wc-9" style="edgeStyle=orthogonalEdgeStyle;rounded=0;orthogonalLoop=1;jettySize=auto;html=1;exitX=0.5;exitY=1;exitDx=0;exitDy=0;entryX=0.5;entryY=0;entryDx=0;entryDy=0;" edge="1" parent="1" source="pfSd8tROmg1UcO-xE_wc-1" target="pfSd8tROmg1UcO-xE_wc-7">
          <mxGeometry relative="1" as="geometry" />
        </mxCell>
        <mxCell id="pfSd8tROmg1UcO-xE_wc-1" value="Se connecter" style="rounded=0;whiteSpace=wrap;html=1;" vertex="1" parent="1">
          <mxGeometry x="300" y="220" width="120" height="60" as="geometry" />
        </mxCell>
        <mxCell id="pfSd8tROmg1UcO-xE_wc-8" style="edgeStyle=orthogonalEdgeStyle;rounded=0;orthogonalLoop=1;jettySize=auto;html=1;exitX=1;exitY=0.5;exitDx=0;exitDy=0;entryX=0;entryY=0.5;entryDx=0;entryDy=0;" edge="1" parent="1" source="pfSd8tROmg1UcO-xE_wc-2" target="pfSd8tROmg1UcO-xE_wc-1">
          <mxGeometry relative="1" as="geometry" />
        </mxCell>
        <mxCell id="pfSd8tROmg1UcO-xE_wc-2" value="S&#39;inscrire" style="rounded=0;whiteSpace=wrap;html=1;" vertex="1" parent="1">
          <mxGeometry x="130" y="210" width="120" height="60" as="geometry" />
        </mxCell>
        <mxCell id="pfSd8tROmg1UcO-xE_wc-18" style="edgeStyle=orthogonalEdgeStyle;rounded=0;orthogonalLoop=1;jettySize=auto;html=1;entryX=0.5;entryY=0;entryDx=0;entryDy=0;" edge="1" parent="1" source="pfSd8tROmg1UcO-xE_wc-7" target="pfSd8tROmg1UcO-xE_wc-10">
          <mxGeometry relative="1" as="geometry" />
        </mxCell>
        <mxCell id="pfSd8tROmg1UcO-xE_wc-7" value="Liste des produits et commande des quantités" style="rounded=0;whiteSpace=wrap;html=1;" vertex="1" parent="1">
          <mxGeometry x="314" y="350" width="120" height="60" as="geometry" />
        </mxCell>
        <mxCell id="pfSd8tROmg1UcO-xE_wc-19" style="edgeStyle=orthogonalEdgeStyle;rounded=0;orthogonalLoop=1;jettySize=auto;html=1;exitX=0;exitY=0.5;exitDx=0;exitDy=0;" edge="1" parent="1" source="pfSd8tROmg1UcO-xE_wc-10" target="pfSd8tROmg1UcO-xE_wc-11">
          <mxGeometry relative="1" as="geometry" />
        </mxCell>
        <mxCell id="pfSd8tROmg1UcO-xE_wc-35" value="&lt;div&gt;Si sur place&lt;/div&gt;" style="edgeLabel;html=1;align=center;verticalAlign=middle;resizable=0;points=[];" vertex="1" connectable="0" parent="pfSd8tROmg1UcO-xE_wc-19">
          <mxGeometry x="-0.5067" relative="1" as="geometry">
            <mxPoint as="offset" />
          </mxGeometry>
        </mxCell>
        <mxCell id="pfSd8tROmg1UcO-xE_wc-20" style="edgeStyle=orthogonalEdgeStyle;rounded=0;orthogonalLoop=1;jettySize=auto;html=1;exitX=1;exitY=0.5;exitDx=0;exitDy=0;entryX=0;entryY=0.5;entryDx=0;entryDy=0;" edge="1" parent="1" source="pfSd8tROmg1UcO-xE_wc-10" target="pfSd8tROmg1UcO-xE_wc-12">
          <mxGeometry relative="1" as="geometry" />
        </mxCell>
        <mxCell id="pfSd8tROmg1UcO-xE_wc-34" value="si emporté" style="edgeLabel;html=1;align=center;verticalAlign=middle;resizable=0;points=[];" vertex="1" connectable="0" parent="pfSd8tROmg1UcO-xE_wc-20">
          <mxGeometry x="-0.5273" y="2" relative="1" as="geometry">
            <mxPoint as="offset" />
          </mxGeometry>
        </mxCell>
        <mxCell id="pfSd8tROmg1UcO-xE_wc-10" value="" style="rhombus;whiteSpace=wrap;html=1;" vertex="1" parent="1">
          <mxGeometry x="380" y="480" width="80" height="80" as="geometry" />
        </mxCell>
        <mxCell id="pfSd8tROmg1UcO-xE_wc-22" style="edgeStyle=orthogonalEdgeStyle;rounded=0;orthogonalLoop=1;jettySize=auto;html=1;exitX=0.5;exitY=1;exitDx=0;exitDy=0;entryX=0;entryY=0.75;entryDx=0;entryDy=0;" edge="1" parent="1" source="pfSd8tROmg1UcO-xE_wc-11" target="pfSd8tROmg1UcO-xE_wc-13">
          <mxGeometry relative="1" as="geometry" />
        </mxCell>
        <mxCell id="pfSd8tROmg1UcO-xE_wc-11" value="Consommer sur place" style="rounded=0;whiteSpace=wrap;html=1;" vertex="1" parent="1">
          <mxGeometry x="140" y="460" width="120" height="60" as="geometry" />
        </mxCell>
        <mxCell id="pfSd8tROmg1UcO-xE_wc-21" style="edgeStyle=orthogonalEdgeStyle;rounded=0;orthogonalLoop=1;jettySize=auto;html=1;exitX=0.5;exitY=1;exitDx=0;exitDy=0;entryX=1;entryY=0.5;entryDx=0;entryDy=0;" edge="1" parent="1" source="pfSd8tROmg1UcO-xE_wc-12" target="pfSd8tROmg1UcO-xE_wc-13">
          <mxGeometry relative="1" as="geometry" />
        </mxCell>
        <mxCell id="pfSd8tROmg1UcO-xE_wc-12" value="A emporter" style="rounded=0;whiteSpace=wrap;html=1;" vertex="1" parent="1">
          <mxGeometry x="560" y="480" width="120" height="60" as="geometry" />
        </mxCell>
        <mxCell id="pfSd8tROmg1UcO-xE_wc-23" style="edgeStyle=orthogonalEdgeStyle;rounded=0;orthogonalLoop=1;jettySize=auto;html=1;exitX=0.5;exitY=1;exitDx=0;exitDy=0;entryX=0.5;entryY=0;entryDx=0;entryDy=0;" edge="1" parent="1" source="pfSd8tROmg1UcO-xE_wc-13" target="pfSd8tROmg1UcO-xE_wc-15">
          <mxGeometry relative="1" as="geometry" />
        </mxCell>
        <mxCell id="pfSd8tROmg1UcO-xE_wc-13" value="&lt;div&gt;Total de la commande&lt;/div&gt;" style="rounded=0;whiteSpace=wrap;html=1;" vertex="1" parent="1">
          <mxGeometry x="340" y="620" width="120" height="60" as="geometry" />
        </mxCell>
        <mxCell id="pfSd8tROmg1UcO-xE_wc-14" value="Accepte la command" style="rounded=0;whiteSpace=wrap;html=1;" vertex="1" parent="1">
          <mxGeometry x="120" y="700" width="120" height="60" as="geometry" />
        </mxCell>
        <mxCell id="pfSd8tROmg1UcO-xE_wc-24" style="edgeStyle=orthogonalEdgeStyle;rounded=0;orthogonalLoop=1;jettySize=auto;html=1;exitX=0;exitY=0.5;exitDx=0;exitDy=0;entryX=1;entryY=0.5;entryDx=0;entryDy=0;" edge="1" parent="1" source="pfSd8tROmg1UcO-xE_wc-15" target="pfSd8tROmg1UcO-xE_wc-14">
          <mxGeometry relative="1" as="geometry" />
        </mxCell>
        <mxCell id="pfSd8tROmg1UcO-xE_wc-36" value="si accepte" style="edgeLabel;html=1;align=center;verticalAlign=middle;resizable=0;points=[];" vertex="1" connectable="0" parent="pfSd8tROmg1UcO-xE_wc-24">
          <mxGeometry x="-0.7174" relative="1" as="geometry">
            <mxPoint as="offset" />
          </mxGeometry>
        </mxCell>
        <mxCell id="pfSd8tROmg1UcO-xE_wc-25" style="edgeStyle=orthogonalEdgeStyle;rounded=0;orthogonalLoop=1;jettySize=auto;html=1;exitX=1;exitY=0.5;exitDx=0;exitDy=0;entryX=0;entryY=0.5;entryDx=0;entryDy=0;" edge="1" parent="1" source="pfSd8tROmg1UcO-xE_wc-15" target="pfSd8tROmg1UcO-xE_wc-16">
          <mxGeometry relative="1" as="geometry" />
        </mxCell>
        <mxCell id="pfSd8tROmg1UcO-xE_wc-37" value="si refuse" style="edgeLabel;html=1;align=center;verticalAlign=middle;resizable=0;points=[];" vertex="1" connectable="0" parent="pfSd8tROmg1UcO-xE_wc-25">
          <mxGeometry x="-0.6712" y="-1" relative="1" as="geometry">
            <mxPoint as="offset" />
          </mxGeometry>
        </mxCell>
        <mxCell id="pfSd8tROmg1UcO-xE_wc-15" value="" style="rhombus;whiteSpace=wrap;html=1;" vertex="1" parent="1">
          <mxGeometry x="354" y="760" width="80" height="80" as="geometry" />
        </mxCell>
        <mxCell id="pfSd8tROmg1UcO-xE_wc-27" style="edgeStyle=orthogonalEdgeStyle;rounded=0;orthogonalLoop=1;jettySize=auto;html=1;exitX=1;exitY=0.5;exitDx=0;exitDy=0;entryX=1;entryY=0.75;entryDx=0;entryDy=0;" edge="1" parent="1" source="pfSd8tROmg1UcO-xE_wc-16" target="pfSd8tROmg1UcO-xE_wc-7">
          <mxGeometry relative="1" as="geometry">
            <Array as="points">
              <mxPoint x="710" y="790" />
              <mxPoint x="710" y="395" />
            </Array>
          </mxGeometry>
        </mxCell>
        <mxCell id="pfSd8tROmg1UcO-xE_wc-16" value="Refuse la commande" style="rounded=0;whiteSpace=wrap;html=1;" vertex="1" parent="1">
          <mxGeometry x="570" y="760" width="120" height="60" as="geometry" />
        </mxCell>
        <mxCell id="pfSd8tROmg1UcO-xE_wc-30" style="edgeStyle=orthogonalEdgeStyle;rounded=0;orthogonalLoop=1;jettySize=auto;html=1;exitX=1;exitY=0.5;exitDx=0;exitDy=0;" edge="1" parent="1" source="pfSd8tROmg1UcO-xE_wc-17" target="pfSd8tROmg1UcO-xE_wc-29">
          <mxGeometry relative="1" as="geometry" />
        </mxCell>
        <mxCell id="pfSd8tROmg1UcO-xE_wc-17" value="Envoie un mail" style="rounded=0;whiteSpace=wrap;html=1;" vertex="1" parent="1">
          <mxGeometry x="220" y="940" width="120" height="60" as="geometry" />
        </mxCell>
        <mxCell id="pfSd8tROmg1UcO-xE_wc-26" style="edgeStyle=orthogonalEdgeStyle;rounded=0;orthogonalLoop=1;jettySize=auto;html=1;exitX=0.5;exitY=1;exitDx=0;exitDy=0;entryX=-0.008;entryY=0.617;entryDx=0;entryDy=0;entryPerimeter=0;" edge="1" parent="1" source="pfSd8tROmg1UcO-xE_wc-14" target="pfSd8tROmg1UcO-xE_wc-17">
          <mxGeometry relative="1" as="geometry" />
        </mxCell>
        <mxCell id="pfSd8tROmg1UcO-xE_wc-31" style="edgeStyle=orthogonalEdgeStyle;rounded=0;orthogonalLoop=1;jettySize=auto;html=1;exitX=1;exitY=0.5;exitDx=0;exitDy=0;entryX=1;entryY=0.5;entryDx=0;entryDy=0;" edge="1" parent="1" source="pfSd8tROmg1UcO-xE_wc-29" target="pfSd8tROmg1UcO-xE_wc-7">
          <mxGeometry relative="1" as="geometry">
            <Array as="points">
              <mxPoint x="750" y="960" />
              <mxPoint x="750" y="360" />
              <mxPoint x="500" y="360" />
              <mxPoint x="500" y="380" />
            </Array>
          </mxGeometry>
        </mxCell>
        <mxCell id="pfSd8tROmg1UcO-xE_wc-29" value="Commande retirée" style="rounded=0;whiteSpace=wrap;html=1;" vertex="1" parent="1">
          <mxGeometry x="414" y="930" width="120" height="60" as="geometry" />
        </mxCell>
        <mxCell id="9SNiAh7SNTj7rkT4Ykyh-2" style="edgeStyle=orthogonalEdgeStyle;rounded=0;orthogonalLoop=1;jettySize=auto;html=1;exitX=0.5;exitY=0;exitDx=0;exitDy=0;" edge="1" parent="1" source="pfSd8tROmg1UcO-xE_wc-32" target="9SNiAh7SNTj7rkT4Ykyh-1">
          <mxGeometry relative="1" as="geometry" />
        </mxCell>
        <mxCell id="pfSd8tROmg1UcO-xE_wc-32" value="déconnexion" style="rounded=0;whiteSpace=wrap;html=1;" vertex="1" parent="1">
          <mxGeometry x="580" y="170" width="120" height="60" as="geometry" />
        </mxCell>
        <mxCell id="pfSd8tROmg1UcO-xE_wc-39" value="Tout le monde peux se déconnecter" style="text;html=1;strokeColor=#d6b656;fillColor=#fff2cc;align=center;verticalAlign=middle;whiteSpace=wrap;rounded=0;" vertex="1" parent="1">
          <mxGeometry x="580" y="270" width="110" height="30" as="geometry" />
        </mxCell>
        <mxCell id="9SNiAh7SNTj7rkT4Ykyh-1" value="" style="ellipse;html=1;shape=endState;fillColor=#000000;strokeColor=#ff0000;" vertex="1" parent="1">
          <mxGeometry x="640" y="80" width="30" height="30" as="geometry" />
        </mxCell>
        <mxCell id="9SNiAh7SNTj7rkT4Ykyh-7" style="edgeStyle=orthogonalEdgeStyle;rounded=0;orthogonalLoop=1;jettySize=auto;html=1;exitX=1;exitY=1;exitDx=0;exitDy=0;exitPerimeter=0;" edge="1" parent="1" source="9SNiAh7SNTj7rkT4Ykyh-6" target="pfSd8tROmg1UcO-xE_wc-2">
          <mxGeometry relative="1" as="geometry" />
        </mxCell>
        <mxCell id="9SNiAh7SNTj7rkT4Ykyh-6" value="utilisateur" style="shape=umlActor;verticalLabelPosition=bottom;verticalAlign=top;html=1;" vertex="1" parent="1">
          <mxGeometry x="80" y="50" width="30" height="60" as="geometry" />
        </mxCell>
      </root>
    </mxGraphModel>
  </diagram>
</mxfile>
